<svg width="512" height="512" viewBox="0 0 512 512" fill="none" xmlns="http://www.w3.org/2000/svg">
  <!-- White background -->
  <rect width="512" height="512" fill="white"/>
  
  <!-- Glass container with gold border -->
  <rect x="64" y="64" width="384" height="384" rx="64" fill="url(#glass)" stroke="url(#goldBorder)" stroke-width="4"/>
  
  <!-- Letter D -->
  <path d="M 160 180 L 220 180 Q 300 180 330 220 Q 360 260 360 320 Q 360 380 330 420 Q 300 460 220 460 L 160 460 L 160 180 Z M 200 220 L 200 420 L 220 420 Q 260 420 280 390 Q 300 360 300 320 Q 300 280 280 250 Q 260 220 220 220 L 200 220 Z" fill="#262659"/>
  
  <!-- Gold accent dot -->
  <circle cx="380" cy="380" r="20" fill="#A67C00"/>
  
  <!-- Gradients -->
  <defs>
    <linearGradient id="glass" x1="64" y1="64" x2="448" y2="448">
      <stop offset="0%" stop-color="white" stop-opacity="0.9"/>
      <stop offset="50%" stop-color="white" stop-opacity="0.7"/>
      <stop offset="100%" stop-color="white" stop-opacity="0.5"/>
    </linearGradient>
    
    <linearGradient id="goldBorder" x1="0" y1="0" x2="512" y2="512">
      <stop offset="0%" stop-color="#A67C00" stop-opacity="0.3"/>
      <stop offset="50%" stop-color="#A67C00" stop-opacity="0.5"/>
      <stop offset="100%" stop-color="#A67C00" stop-opacity="0.3"/>
    </linearGradient>
  </defs>
</svg> 